<svg xmlns="http://www.w3.org/2000/svg" viewBox="0 0 18.135 18.135" width="512" height="512"><path d="M16.279 0H1.855C.831 0 .001.83.001 1.855v14.426c0 1.024.83 1.854 1.854 1.854h14.424a1.852 1.852 0 0 0 1.855-1.854V1.855A1.853 1.853 0 0 0 16.279 0zm1.285 3.863a7.01 7.01 0 0 1-1.612 1.658c-.048.033-.061.069-.061.127.002.215.01.435.004.65a9.59 9.59 0 0 1-.197 1.691 10.56 10.56 0 0 1-1.194 3.14 10.063 10.063 0 0 1-2.042 2.509 9.387 9.387 0 0 1-4.844 2.264c-.306.052-.61.09-.919.106-.022.002-.065-.021-.074.031h-.138c-.035-.026-.068-.024-.104 0h-.961c-.022-.024-.046-.028-.069 0h-.172l.006-.008.003-.007c-.026-.021-.061-.021-.09-.021a9.71 9.71 0 0 1-1.72-.285 10.05 10.05 0 0 1-2.559-1.06c-.103-.062-.202-.127-.325-.202 1.937.195 3.657-.284 5.203-1.452-1.817-.073-2.949-1.339-3.275-2.448.52.09 1.034.078 1.545-.062a3.527 3.527 0 0 1-2.011-1.25c-.525-.651-.774-1.4-.777-2.249.25.14.499.241.76.313.264.073.53.118.819.125C.916 6.133.941 3.912 1.694 2.745a10.051 10.051 0 0 0 2.818 2.383 9.991 9.991 0 0 0 4.367 1.285c.045.003.06-.006.047-.058a2.885 2.885 0 0 1-.072-.525c-.04-.764.132-1.475.553-2.115.592-.9 1.426-1.434 2.495-1.589.021-.004.06.013.059-.032h.086c.018.022.034.022.051 0h.533c.021.022.045.026.066 0h.088c-.003.047.035.028.057.032.088.019.18.026.27.048a3.454 3.454 0 0 1 1.772.977c.033.033.061.056.117.043a6.996 6.996 0 0 0 1.699-.588c.153-.075.305-.16.473-.248a3.576 3.576 0 0 1-.59 1.1 3.725 3.725 0 0 1-.922.83 6.937 6.937 0 0 0 1.981-.542c-.037.057-.055.088-.078.117z" fill="#737373"/></svg>