<svg width="141" height="40" viewBox="0 0 141 40" xmlns="http://www.w3.org/2000/svg"><title>Logo</title><path d="M11.125 10.274a6.018 6.018 0 1 1 8.511-8.511 6.018 6.018 0 0 1 8.512 8.511l-8.512 8.511-8.51-8.511zm1.702-1.702l5.107-5.107a3.611 3.611 0 1 0-5.107 5.107zm8.512-5.107l5.106 5.107a3.611 3.611 0 0 0-5.106-5.107zm3.404 6.809l-5.107-5.107-5.106 5.107 5.106 5.107 5.107-5.107zm-14.469.851l8.511 8.511-8.511 8.512a6.018 6.018 0 1 1-8.511-8.512 6.018 6.018 0 1 1 8.511-8.51zm-1.702 1.702a3.611 3.611 0 1 0-5.107 5.107l5.107-5.107zM3.465 21.34a3.611 3.611 0 0 0 5.107 5.106L3.465 21.34zm6.809 3.404l5.107-5.107-5.107-5.106-5.107 5.106 5.107 5.107zM28.148 29a6.018 6.018 0 0 1-8.512 8.511A6.018 6.018 0 1 1 11.126 29l8.51-8.512L28.148 29zm-1.703 1.7l-5.106 5.107a3.611 3.611 0 0 0 5.106-5.107zm-8.51 5.107L12.826 30.7a3.611 3.611 0 1 0 5.107 5.107zm-3.405-6.81l5.106 5.107L24.743 29l-5.107-5.107L14.53 29zm14.469-.85l-8.512-8.512L29 11.126a6.018 6.018 0 0 1 8.511 8.51A6.018 6.018 0 0 1 29 28.148zm1.702-1.703a3.611 3.611 0 0 0 5.107-5.106L30.7 26.445zm5.107-8.51a3.611 3.611 0 0 0-5.107-5.108l5.107 5.107zm-6.81-3.405l-5.106 5.106 5.107 5.107 5.106-5.107L29 14.53zm24.898 9.157h-.068v8.54h-4.901V6.743h4.901v15.69h.068l5.277-7.625h5.684l-5.855 7.862 6.094 9.556H59.07l-5.174-8.54zm24.475 6.27h-.068c-.726 1.061-1.52 1.784-2.383 2.168a6.783 6.783 0 0 1-2.79.576c-1.068 0-1.98-.158-2.741-.474a5.342 5.342 0 0 1-1.906-1.305 5.162 5.162 0 0 1-1.124-1.931 7.584 7.584 0 0 1-.357-2.355V14.808h4.902v10.607c0 .632.085 1.163.255 1.592.17.43.403.774.698 1.034.295.26.624.446.987.559.363.113.737.17 1.123.17 1.021 0 1.81-.373 2.366-1.119.556-.745.834-1.728.834-2.948v-9.895h4.902v17.418H78.37v-2.27zm8.476-23.213h4.902v25.483h-4.902V6.743zm8.204 2.677c0-.361.074-.711.221-1.05.148-.339.346-.644.596-.915s.55-.491.902-.66c.352-.17.732-.255 1.14-.255.363 0 .715.073 1.055.22.34.147.647.35.92.61.272.26.487.56.646.898.16.34.239.7.239 1.085 0 .384-.074.745-.222 1.084a3.087 3.087 0 0 1-.612.915 2.93 2.93 0 0 1-.92.644c-.351.158-.72.237-1.106.237a2.6 2.6 0 0 1-1.14-.254 3.105 3.105 0 0 1-.902-.644 3.03 3.03 0 0 1-.596-.898 2.529 2.529 0 0 1-.221-1.017zm.408 5.388h4.902v17.418H95.46V14.808zm19.846 6.811c0-.632-.085-1.163-.256-1.592-.17-.43-.402-.774-.697-1.034a2.69 2.69 0 0 0-.988-.559 3.76 3.76 0 0 0-1.123-.17c-1.021 0-1.81.373-2.366 1.119-.556.745-.834 1.728-.834 2.948v9.895h-4.901V14.808h4.697v2.27h.068c.726-1.061 1.52-1.784 2.383-2.168a6.783 6.783 0 0 1 2.791-.576c1.044 0 1.952.158 2.723.474.772.317 1.413.751 1.924 1.305.51.553.885 1.197 1.123 1.931a7.6 7.6 0 0 1 .357 2.355v11.827h-4.901V21.619zm20.22 8.336h-.069c-.817 1.062-1.764 1.785-2.842 2.17-1.078.383-2.127.575-3.149.575a8.76 8.76 0 0 1-2.11-.27 5.995 5.995 0 0 1-1.991-.899 4.78 4.78 0 0 1-1.464-1.643c-.375-.678-.562-1.514-.562-2.508 0-.474.068-1 .204-1.576.137-.576.454-1.124.954-1.643.499-.52 1.248-.977 2.246-1.373.999-.395 2.349-.649 4.051-.762l4.527-.271v-.813c0-1.04-.3-1.813-.902-2.322-.601-.508-1.446-.762-2.536-.762-1.021 0-1.815.232-2.383.695-.567.463-.873 1.09-.919 1.88h-4.697a6.86 6.86 0 0 1 .493-2.084c.284-.711.744-1.366 1.379-1.965s1.464-1.09 2.485-1.474c1.021-.384 2.303-.576 3.846-.576a13.9 13.9 0 0 1 3.064.322c.953.214 1.793.548 2.52 1a5.068 5.068 0 0 1 1.718 1.745c.42.711.63 1.564.63 2.558v10.098c0 .452.023.847.068 1.186.045.339.102.666.17.983h-4.731v-2.27zm-.205-5.32l-4.085.373c-1.157.113-1.945.339-2.365.678-.42.339-.63.824-.63 1.457 0 .768.306 1.299.919 1.592.613.294 1.328.441 2.145.441.385 0 .81-.056 1.276-.17a4.896 4.896 0 0 0 1.31-.525 3.303 3.303 0 0 0 1.022-.915c.272-.372.408-.819.408-1.338v-1.593z" fill="#fff" fill-rule="evenodd"/></svg>